<mxfile host="app.diagrams.net" modified="2021-09-16T02:33:16.847Z" agent="5.0 (X11; Linux x86_64) AppleWebKit/537.36 (KHTML, like Gecko) Chrome/93.0.4577.63 Safari/537.36" etag="TLo3Mken7crk4xFoQ0Qz" version="15.2.7" type="github">
  <diagram id="6a731a19-8d31-9384-78a2-239565b7b9f0" name="Page-1">
    <mxGraphModel dx="1422" dy="801" grid="1" gridSize="10" guides="1" tooltips="1" connect="1" arrows="1" fold="1" page="1" pageScale="1" pageWidth="1169" pageHeight="827" background="none" math="0" shadow="0">
      <root>
        <mxCell id="0" />
        <mxCell id="1" parent="0" />
        <mxCell id="1746" value="" style="rounded=0;jumpStyle=none;html=1;shadow=0;labelBackgroundColor=none;startArrow=none;startFill=0;endArrow=classic;endFill=1;jettySize=auto;orthogonalLoop=1;strokeColor=#2F5B7C;strokeWidth=3;fontFamily=Helvetica;fontSize=16;fontColor=#23445D;spacing=5;edgeStyle=orthogonalEdgeStyle;" parent="1" source="1749" target="1771" edge="1">
          <mxGeometry relative="1" as="geometry">
            <Array as="points">
              <mxPoint x="480" y="175" />
            </Array>
          </mxGeometry>
        </mxCell>
        <mxCell id="1748" value="" style="rounded=0;jumpStyle=none;html=1;shadow=0;labelBackgroundColor=none;startArrow=none;startFill=0;endArrow=classic;endFill=1;jettySize=auto;orthogonalLoop=1;strokeColor=#2F5B7C;strokeWidth=3;fontFamily=Helvetica;fontSize=16;fontColor=#23445D;spacing=5;edgeStyle=orthogonalEdgeStyle;" parent="1" source="1749" target="1753" edge="1">
          <mxGeometry relative="1" as="geometry">
            <Array as="points">
              <mxPoint x="470" y="175" />
            </Array>
          </mxGeometry>
        </mxCell>
        <mxCell id="1749" value="TTS IMAGE" style="rounded=1;whiteSpace=wrap;html=1;shadow=0;labelBackgroundColor=none;strokeColor=none;strokeWidth=3;fillColor=#2F5B7C;fontFamily=Helvetica;fontSize=24;fontColor=#FFFFFF;align=center;fontStyle=1;spacing=5;arcSize=7;perimeterSpacing=2;" parent="1" vertex="1">
          <mxGeometry x="350" y="40" width="250" height="70" as="geometry" />
        </mxCell>
        <mxCell id="1750" value="" style="edgeStyle=elbowEdgeStyle;rounded=0;jumpStyle=none;html=1;shadow=0;labelBackgroundColor=none;startArrow=none;startFill=0;jettySize=auto;orthogonalLoop=1;strokeColor=#E85642;strokeWidth=2;fontFamily=Helvetica;fontSize=14;fontColor=#FFFFFF;spacing=5;fontStyle=1;fillColor=#b0e3e6;endArrow=none;endFill=0;" parent="1" source="1753" target="1756" edge="1">
          <mxGeometry relative="1" as="geometry">
            <mxPoint x="120" y="510" as="targetPoint" />
            <Array as="points">
              <mxPoint x="155" y="223" />
            </Array>
          </mxGeometry>
        </mxCell>
        <mxCell id="1753" value="CPU" style="rounded=1;whiteSpace=wrap;html=1;shadow=0;labelBackgroundColor=none;strokeColor=#b85450;strokeWidth=3;fillColor=#f8cecc;fontFamily=Helvetica;fontSize=14;align=center;spacing=5;fontStyle=1;arcSize=7;perimeterSpacing=2;" parent="1" vertex="1">
          <mxGeometry x="80" y="145" width="150" height="60" as="geometry" />
        </mxCell>
        <mxCell id="1754" value="pip install -r" style="rounded=1;whiteSpace=wrap;html=1;shadow=0;labelBackgroundColor=none;strokeColor=none;strokeWidth=3;fillColor=#f08e81;fontFamily=Helvetica;fontSize=14;fontColor=#FFFFFF;align=center;spacing=5;fontStyle=0;arcSize=7;perimeterSpacing=2;" parent="1" vertex="1">
          <mxGeometry x="200" y="423" width="150" height="40" as="geometry" />
        </mxCell>
        <mxCell id="1755" value="apt install git, cron, libsndfile1, wget" style="rounded=1;whiteSpace=wrap;html=1;shadow=0;labelBackgroundColor=none;strokeColor=none;strokeWidth=3;fillColor=#f08e81;fontFamily=Helvetica;fontSize=14;fontColor=#FFFFFF;align=center;spacing=5;fontStyle=0;arcSize=7;perimeterSpacing=2;" parent="1" vertex="1">
          <mxGeometry x="200" y="301" width="150" height="40" as="geometry" />
        </mxCell>
        <mxCell id="1756" value="FROM python:3.8" style="rounded=1;whiteSpace=wrap;html=1;shadow=0;labelBackgroundColor=none;strokeColor=none;strokeWidth=3;fillColor=#f08e81;fontFamily=Helvetica;fontSize=14;fontColor=#FFFFFF;align=center;spacing=5;fontStyle=0;arcSize=7;perimeterSpacing=2;" parent="1" vertex="1">
          <mxGeometry x="200" y="240" width="150" height="40" as="geometry" />
        </mxCell>
        <mxCell id="1757" value="" style="edgeStyle=orthogonalEdgeStyle;rounded=0;jumpStyle=none;html=1;shadow=0;labelBackgroundColor=none;startArrow=none;startFill=0;endArrow=none;endFill=0;jettySize=auto;orthogonalLoop=1;strokeColor=#1699D3;strokeWidth=2;fontFamily=Helvetica;fontSize=14;fontColor=#FFFFFF;spacing=5;entryX=0;entryY=0.5;entryDx=0;entryDy=0;" parent="1" source="1760" target="1761" edge="1">
          <mxGeometry relative="1" as="geometry">
            <Array as="points">
              <mxPoint x="645" y="360" />
            </Array>
          </mxGeometry>
        </mxCell>
        <mxCell id="1760" value="CUDA10" style="rounded=1;whiteSpace=wrap;html=1;shadow=0;labelBackgroundColor=none;strokeColor=none;strokeWidth=3;fillColor=#1699d3;fontFamily=Helvetica;fontSize=14;fontColor=#FFFFFF;align=center;spacing=5;fontStyle=1;arcSize=7;perimeterSpacing=2;" parent="1" vertex="1">
          <mxGeometry x="570" y="260" width="150" height="60" as="geometry" />
        </mxCell>
        <mxCell id="1761" value="Content" style="rounded=1;whiteSpace=wrap;html=1;shadow=0;labelBackgroundColor=none;strokeColor=none;strokeWidth=3;fillColor=#64bbe2;fontFamily=Helvetica;fontSize=14;fontColor=#FFFFFF;align=center;spacing=5;arcSize=7;perimeterSpacing=2;" parent="1" vertex="1">
          <mxGeometry x="670" y="340" width="150" height="40" as="geometry" />
        </mxCell>
        <mxCell id="1771" value="GPU" style="rounded=1;whiteSpace=wrap;html=1;shadow=0;labelBackgroundColor=none;strokeColor=#82b366;strokeWidth=3;fillColor=#d5e8d4;fontFamily=Helvetica;fontSize=14;align=center;spacing=5;fontStyle=1;arcSize=7;perimeterSpacing=2;" parent="1" vertex="1">
          <mxGeometry x="720" y="145" width="150" height="60" as="geometry" />
        </mxCell>
        <mxCell id="1773" value="" style="edgeStyle=orthogonalEdgeStyle;rounded=0;jumpStyle=none;html=1;shadow=0;labelBackgroundColor=none;startArrow=none;startFill=0;jettySize=auto;orthogonalLoop=1;strokeColor=#82b366;strokeWidth=3;fontFamily=Helvetica;fontSize=14;fontColor=#FFFFFF;spacing=5;fontStyle=1;fillColor=#d5e8d4;" parent="1" source="1771" target="1760" edge="1">
          <mxGeometry relative="1" as="geometry">
            <Array as="points">
              <mxPoint x="790" y="290" />
            </Array>
          </mxGeometry>
        </mxCell>
        <mxCell id="1775" value="" style="edgeStyle=orthogonalEdgeStyle;rounded=0;jumpStyle=none;html=1;shadow=0;labelBackgroundColor=none;startArrow=none;startFill=0;jettySize=auto;orthogonalLoop=1;strokeColor=#12AAB5;strokeWidth=2;fontFamily=Helvetica;fontSize=14;fontColor=#FFFFFF;spacing=5;fontStyle=1;fillColor=#b0e3e6;entryX=0;entryY=0.5;entryDx=0;entryDy=0;endArrow=none;endFill=0;" parent="1" source="eaw7hdADB18bxWEuQDhC-1787" target="1778" edge="1">
          <mxGeometry relative="1" as="geometry">
            <mxPoint x="1065.3946592371735" y="532.5" as="targetPoint" />
            <Array as="points">
              <mxPoint x="945" y="370" />
            </Array>
          </mxGeometry>
        </mxCell>
        <mxCell id="1778" value="FROM nvidia/cuda:&lt;br&gt;11.2.0-cudnn8-devel-&lt;br&gt;ubuntu18.04" style="rounded=1;whiteSpace=wrap;html=1;shadow=0;labelBackgroundColor=none;strokeColor=none;strokeWidth=3;fillColor=#61c6ce;fontFamily=Helvetica;fontSize=14;fontColor=#FFFFFF;align=center;spacing=5;fontStyle=0;arcSize=7;perimeterSpacing=2;" parent="1" vertex="1">
          <mxGeometry x="970" y="340" width="150" height="60" as="geometry" />
        </mxCell>
        <mxCell id="eaw7hdADB18bxWEuQDhC-1779" value="" style="edgeStyle=elbowEdgeStyle;rounded=0;jumpStyle=none;html=1;shadow=0;labelBackgroundColor=none;startArrow=none;startFill=0;jettySize=auto;orthogonalLoop=1;strokeColor=#E85642;strokeWidth=2;fontFamily=Helvetica;fontSize=14;fontColor=#FFFFFF;spacing=5;fontStyle=1;fillColor=#b0e3e6;endArrow=none;endFill=0;" edge="1" parent="1" source="1753" target="1755">
          <mxGeometry relative="1" as="geometry">
            <mxPoint x="165" y="217" as="sourcePoint" />
            <mxPoint x="208" y="270" as="targetPoint" />
            <Array as="points">
              <mxPoint x="155" y="322" />
            </Array>
          </mxGeometry>
        </mxCell>
        <mxCell id="eaw7hdADB18bxWEuQDhC-1780" value="" style="edgeStyle=elbowEdgeStyle;rounded=0;jumpStyle=none;html=1;shadow=0;labelBackgroundColor=none;startArrow=none;startFill=0;jettySize=auto;orthogonalLoop=1;strokeColor=#E85642;strokeWidth=2;fontFamily=Helvetica;fontSize=14;fontColor=#FFFFFF;spacing=5;fontStyle=1;fillColor=#b0e3e6;endArrow=none;endFill=0;" edge="1" parent="1" source="1753" target="1754">
          <mxGeometry relative="1" as="geometry">
            <mxPoint x="165" y="217" as="sourcePoint" />
            <mxPoint x="208" y="332" as="targetPoint" />
            <Array as="points">
              <mxPoint x="155" y="332" />
            </Array>
          </mxGeometry>
        </mxCell>
        <mxCell id="eaw7hdADB18bxWEuQDhC-1781" value="create workspace" style="rounded=1;whiteSpace=wrap;html=1;shadow=0;labelBackgroundColor=none;strokeColor=none;strokeWidth=3;fillColor=#f08e81;fontFamily=Helvetica;fontSize=14;fontColor=#FFFFFF;align=center;spacing=5;fontStyle=0;arcSize=7;perimeterSpacing=2;" vertex="1" parent="1">
          <mxGeometry x="200" y="362" width="150" height="40" as="geometry" />
        </mxCell>
        <mxCell id="eaw7hdADB18bxWEuQDhC-1782" value="" style="edgeStyle=elbowEdgeStyle;rounded=0;jumpStyle=none;html=1;shadow=0;labelBackgroundColor=none;startArrow=none;startFill=0;jettySize=auto;orthogonalLoop=1;strokeColor=#E85642;strokeWidth=2;fontFamily=Helvetica;fontSize=14;fontColor=#FFFFFF;spacing=5;fontStyle=1;fillColor=#b0e3e6;endArrow=none;endFill=0;entryX=0;entryY=0.5;entryDx=0;entryDy=0;" edge="1" parent="1" source="1753" target="eaw7hdADB18bxWEuQDhC-1781">
          <mxGeometry relative="1" as="geometry">
            <mxPoint x="165" y="217" as="sourcePoint" />
            <mxPoint x="190" y="380" as="targetPoint" />
            <Array as="points">
              <mxPoint x="155" y="295" />
            </Array>
          </mxGeometry>
        </mxCell>
        <mxCell id="eaw7hdADB18bxWEuQDhC-1783" value="download nltk" style="rounded=1;whiteSpace=wrap;html=1;shadow=0;labelBackgroundColor=none;strokeColor=none;strokeWidth=3;fillColor=#f08e81;fontFamily=Helvetica;fontSize=14;fontColor=#FFFFFF;align=center;spacing=5;fontStyle=0;arcSize=7;perimeterSpacing=2;" vertex="1" parent="1">
          <mxGeometry x="200" y="484" width="150" height="40" as="geometry" />
        </mxCell>
        <mxCell id="eaw7hdADB18bxWEuQDhC-1784" value="" style="edgeStyle=elbowEdgeStyle;rounded=0;jumpStyle=none;html=1;shadow=0;labelBackgroundColor=none;startArrow=none;startFill=0;jettySize=auto;orthogonalLoop=1;strokeColor=#E85642;strokeWidth=2;fontFamily=Helvetica;fontSize=14;fontColor=#FFFFFF;spacing=5;fontStyle=1;fillColor=#b0e3e6;endArrow=none;endFill=0;" edge="1" parent="1" source="1753" target="eaw7hdADB18bxWEuQDhC-1783">
          <mxGeometry relative="1" as="geometry">
            <mxPoint x="165" y="217" as="sourcePoint" />
            <mxPoint x="208" y="454.5" as="targetPoint" />
            <Array as="points">
              <mxPoint x="155" y="500" />
            </Array>
          </mxGeometry>
        </mxCell>
        <mxCell id="eaw7hdADB18bxWEuQDhC-1785" value="CMD entrypoint" style="rounded=1;whiteSpace=wrap;html=1;shadow=0;labelBackgroundColor=none;strokeColor=none;strokeWidth=3;fillColor=#f08e81;fontFamily=Helvetica;fontSize=14;fontColor=#FFFFFF;align=center;spacing=5;fontStyle=0;arcSize=7;perimeterSpacing=2;" vertex="1" parent="1">
          <mxGeometry x="200" y="544.5" width="150" height="40" as="geometry" />
        </mxCell>
        <mxCell id="eaw7hdADB18bxWEuQDhC-1786" value="" style="edgeStyle=elbowEdgeStyle;rounded=0;jumpStyle=none;html=1;shadow=0;labelBackgroundColor=none;startArrow=none;startFill=0;jettySize=auto;orthogonalLoop=1;strokeColor=#E85642;strokeWidth=2;fontFamily=Helvetica;fontSize=14;fontColor=#FFFFFF;spacing=5;fontStyle=1;fillColor=#b0e3e6;endArrow=none;endFill=0;" edge="1" parent="1" source="1753" target="eaw7hdADB18bxWEuQDhC-1785">
          <mxGeometry relative="1" as="geometry">
            <mxPoint x="165" y="217" as="sourcePoint" />
            <mxPoint x="208" y="510" as="targetPoint" />
            <Array as="points">
              <mxPoint x="155" y="565" />
            </Array>
          </mxGeometry>
        </mxCell>
        <mxCell id="eaw7hdADB18bxWEuQDhC-1787" value="CUDA11" style="rounded=1;whiteSpace=wrap;html=1;shadow=0;labelBackgroundColor=none;strokeColor=none;strokeWidth=3;fillColor=#12aab5;fontFamily=Helvetica;fontSize=14;fontColor=#FFFFFF;align=center;spacing=5;fontStyle=1;arcSize=7;perimeterSpacing=2;" vertex="1" parent="1">
          <mxGeometry x="870" y="260" width="150" height="60" as="geometry" />
        </mxCell>
        <mxCell id="eaw7hdADB18bxWEuQDhC-1788" value="" style="edgeStyle=orthogonalEdgeStyle;rounded=0;jumpStyle=none;html=1;shadow=0;labelBackgroundColor=none;startArrow=none;startFill=0;jettySize=auto;orthogonalLoop=1;strokeColor=#82b366;strokeWidth=3;fontFamily=Helvetica;fontSize=14;fontColor=#FFFFFF;spacing=5;fontStyle=1;fillColor=#d5e8d4;" edge="1" parent="1" source="1771" target="eaw7hdADB18bxWEuQDhC-1787">
          <mxGeometry relative="1" as="geometry">
            <mxPoint x="890" y="217" as="sourcePoint" />
            <mxPoint x="802" y="300" as="targetPoint" />
            <Array as="points">
              <mxPoint x="800" y="290" />
            </Array>
          </mxGeometry>
        </mxCell>
        <mxCell id="eaw7hdADB18bxWEuQDhC-1789" value="Content" style="rounded=1;whiteSpace=wrap;html=1;shadow=0;labelBackgroundColor=none;strokeColor=none;strokeWidth=3;fillColor=#64bbe2;fontFamily=Helvetica;fontSize=14;fontColor=#FFFFFF;align=center;spacing=5;arcSize=7;perimeterSpacing=2;" vertex="1" parent="1">
          <mxGeometry x="670" y="402" width="150" height="40" as="geometry" />
        </mxCell>
        <mxCell id="eaw7hdADB18bxWEuQDhC-1790" value="" style="edgeStyle=orthogonalEdgeStyle;rounded=0;jumpStyle=none;html=1;shadow=0;labelBackgroundColor=none;startArrow=none;startFill=0;endArrow=none;endFill=0;jettySize=auto;orthogonalLoop=1;strokeColor=#1699D3;strokeWidth=2;fontFamily=Helvetica;fontSize=14;fontColor=#FFFFFF;spacing=5;entryX=0;entryY=0.5;entryDx=0;entryDy=0;exitX=0.5;exitY=1;exitDx=0;exitDy=0;" edge="1" parent="1" source="1760" target="eaw7hdADB18bxWEuQDhC-1789">
          <mxGeometry relative="1" as="geometry">
            <mxPoint x="695" y="332" as="sourcePoint" />
            <mxPoint x="728" y="370" as="targetPoint" />
            <Array as="points">
              <mxPoint x="645" y="422" />
            </Array>
          </mxGeometry>
        </mxCell>
        <mxCell id="eaw7hdADB18bxWEuQDhC-1791" value="" style="rounded=1;whiteSpace=wrap;html=1;shadow=0;labelBackgroundColor=none;strokeColor=none;strokeWidth=3;fillColor=#61c6ce;fontFamily=Helvetica;fontSize=14;fontColor=#FFFFFF;align=center;spacing=5;fontStyle=0;arcSize=7;perimeterSpacing=2;" vertex="1" parent="1">
          <mxGeometry x="970" y="423" width="150" height="39" as="geometry" />
        </mxCell>
        <mxCell id="eaw7hdADB18bxWEuQDhC-1792" value="" style="edgeStyle=orthogonalEdgeStyle;rounded=0;jumpStyle=none;html=1;shadow=0;labelBackgroundColor=none;startArrow=none;startFill=0;jettySize=auto;orthogonalLoop=1;strokeColor=#12AAB5;strokeWidth=2;fontFamily=Helvetica;fontSize=14;fontColor=#FFFFFF;spacing=5;fontStyle=1;fillColor=#b0e3e6;endArrow=none;endFill=0;exitX=0.5;exitY=1;exitDx=0;exitDy=0;" edge="1" parent="1" source="eaw7hdADB18bxWEuQDhC-1787" target="eaw7hdADB18bxWEuQDhC-1791">
          <mxGeometry relative="1" as="geometry">
            <mxPoint x="955" y="332" as="sourcePoint" />
            <mxPoint x="978" y="380" as="targetPoint" />
            <Array as="points">
              <mxPoint x="945" y="443" />
            </Array>
          </mxGeometry>
        </mxCell>
      </root>
    </mxGraphModel>
  </diagram>
</mxfile>
